<?xml version="1.0" standalone="no"?>
<!DOCTYPE svg PUBLIC "-//W3C//DTD SVG 20010904//EN"
 "http://www.w3.org/TR/2001/REC-SVG-20010904/DTD/svg10.dtd">
<svg version="1.0" xmlns="http://www.w3.org/2000/svg"
 width="1000.000000pt" height="1000.000000pt" viewBox="0 0 1000.000000 1000.000000"
 preserveAspectRatio="xMidYMid meet">

<g transform="translate(0.000000,1000.000000) scale(0.100000,-0.100000)"
fill="#000000" stroke="none">
<path d="M935 9875 c-411 -90 -723 -404 -811 -815 -21 -97 -21 -8033 0 -8130
48 -223 198 -478 347 -588 141 -104 235 -157 359 -198 l85 -29 4090 0 4090 0
85 28 c98 33 156 64 291 154 113 74 164 126 240 243 83 126 114 186 146 280
l28 85 0 4090 0 4090 -29 85 c-41 124 -94 218 -198 359 -110 149 -365 299
-588 347 -95 20 -8043 19 -8135 -1z m3823 -636 l404 -11 116 -48 117 -49 210
-10 c115 -6 246 -11 291 -11 l82 0 334 -164 c183 -90 445 -218 583 -285 137
-67 258 -130 269 -139 10 -9 43 -48 72 -87 29 -38 78 -104 110 -145 201 -265
301 -396 306 -405 6 -10 26 -146 83 -565 13 -102 38 -283 55 -403 16 -120 30
-229 30 -243 0 -25 -16 -79 -115 -399 -25 -82 -61 -199 -80 -260 -18 -60 -45
-166 -60 -235 -14 -69 -32 -154 -40 -190 -8 -36 -17 -123 -21 -193 -6 -123 -7
-129 -34 -155 -24 -24 -32 -47 -59 -184 -31 -151 -64 -258 -82 -258 -4 0 -12
8 -18 18 -11 20 -10 23 -36 -88 -24 -106 -79 -269 -116 -344 -92 -189 -251
-320 -459 -378 -95 -26 -340 -36 -485 -18 -212 25 -308 52 -465 128 -79 38
-109 60 -181 131 -166 167 -318 441 -374 680 -23 95 -43 135 -75 154 -57 34
-151 11 -181 -44 -6 -12 -22 -64 -35 -114 -56 -223 -161 -429 -311 -615 -101
-124 -198 -188 -383 -253 -159 -55 -283 -72 -535 -72 -250 1 -333 21 -489 123
-119 77 -193 167 -258 312 -51 113 -109 305 -134 443 -8 44 -24 59 -24 22 0
-44 -22 -116 -34 -112 -11 3 -17 25 -91 327 -21 85 -44 175 -51 200 -46 154
-76 246 -106 325 -32 82 -67 212 -129 473 -12 50 -23 92 -25 92 -2 0 -19 -17
-38 -37 -46 -50 -58 -37 -67 70 -15 169 -38 403 -45 446 l-7 43 -33 -58 c-18
-33 -39 -59 -46 -59 -17 0 -21 151 -10 390 5 99 7 183 5 187 -2 4 -28 -10 -58
-32 -60 -44 -74 -48 -77 -22 -3 32 -4 28 70 217 11 28 56 145 101 260 45 116
88 224 96 240 18 41 22 60 10 59 -5 -1 -38 -5 -72 -8 l-63 -7 0 30 c0 16 4 33
10 36 9 5 227 265 334 398 l38 47 -70 0 c-56 0 -71 3 -76 17 -4 9 -1 22 6 28
7 7 38 34 69 61 30 27 87 76 125 110 276 243 257 230 434 298 52 21 104 41
115 46 11 5 67 27 125 50 58 22 114 45 125 49 11 5 40 17 65 26 25 10 59 24
75 31 75 32 146 53 215 63 100 15 274 38 488 64 68 8 126 18 130 22 4 3 16 4
27 0 11 -3 201 -10 423 -16z m-3745 -369 c34 -71 65 -130 68 -130 3 0 27 49
53 109 63 145 68 151 117 151 30 0 39 -4 39 -17 0 -10 4 -65 9 -123 5 -58 13
-149 16 -203 l7 -98 -44 3 -43 3 -6 143 c-3 78 -8 144 -10 147 -3 2 -28 -48
-56 -113 -49 -115 -51 -117 -84 -120 l-34 -2 -49 115 c-26 63 -52 112 -57 109
-5 -3 -9 -33 -9 -68 0 -35 -3 -97 -6 -139 l-7 -77 -38 0 -39 0 0 44 c0 49 17
278 26 349 l6 47 40 0 39 0 62 -130z m153 -774 l35 -35 -3 -138 -3 -138 -102
0 c-97 0 -104 1 -128 26 -14 14 -28 41 -31 60 -12 77 41 129 134 129 46 0 52
2 52 20 0 36 -71 48 -135 24 -9 -4 -14 6 -17 31 -5 46 10 53 101 54 59 1 65
-1 97 -33z m0 -746 c23 -9 26 -14 20 -42 -8 -40 -6 -39 -47 -28 -45 13 -89 4
-89 -20 0 -12 17 -25 53 -40 28 -12 62 -31 74 -42 48 -45 37 -124 -22 -152
-37 -18 -130 -21 -170 -6 -24 9 -26 14 -20 43 4 17 8 33 10 35 1 1 25 -3 53
-10 40 -9 58 -9 78 0 37 17 26 33 -45 67 -73 35 -91 56 -91 103 0 43 14 68 48
86 32 18 109 20 148 6z m-96 -720 l0 -50 60 0 60 0 0 -35 0 -35 -61 0 -61 0 3
-86 c5 -100 19 -120 78 -109 37 7 51 -4 51 -41 0 -25 -23 -34 -91 -34 -57 0
-94 26 -109 78 -5 20 -10 108 -10 194 0 167 0 166 53 167 26 1 27 -1 27 -49z
m7850 -339 l0 -69 65 -4 c109 -7 135 -52 135 -237 l0 -101 -45 0 -45 0 0 120
c0 116 -1 120 -25 136 -16 11 -34 14 -55 9 l-30 -7 0 -129 0 -129 -40 0 -40 0
0 233 c0 129 3 237 7 240 3 4 21 7 40 7 l33 0 0 -69z m-201 28 c33 -12 40 -34
19 -62 -11 -14 -20 -15 -57 -6 -54 12 -98 4 -111 -22 -18 -32 6 -58 83 -94 83
-37 105 -59 117 -110 20 -90 -32 -147 -140 -153 -71 -4 -148 12 -156 32 -3 7
0 25 6 40 8 21 15 26 28 21 78 -33 156 -28 174 10 17 38 -11 70 -83 96 -70 26
-119 69 -120 107 -3 76 13 111 64 136 37 18 130 21 176 5z m-7558 -516 c37
-22 69 -87 69 -141 l0 -42 -110 0 c-62 0 -110 -4 -110 -9 0 -6 11 -22 24 -38
19 -22 32 -27 67 -28 24 0 56 3 70 7 24 7 27 5 33 -24 3 -18 2 -36 -4 -42 -6
-6 -41 -12 -79 -14 -124 -7 -183 42 -189 158 -6 116 55 190 156 190 24 0 57
-8 73 -17z m7730 -280 c37 -22 69 -87 69 -141 l0 -42 -110 0 c-62 0 -110 -4
-110 -9 0 -6 11 -22 24 -38 19 -22 32 -27 67 -28 24 0 56 3 70 7 24 7 27 5 33
-24 3 -18 2 -36 -4 -42 -6 -6 -41 -12 -79 -14 -124 -7 -183 42 -189 158 -6
116 55 190 156 190 24 0 57 -8 73 -17z m-7686 -483 c4 -6 3 -24 0 -41 -7 -29
-9 -30 -41 -24 -72 13 -74 9 -74 -136 l0 -129 -40 0 -40 0 0 163 c0 90 3 167
7 170 11 11 181 8 188 -3z m7720 -190 c4 -6 3 -24 0 -41 -7 -29 -9 -30 -41
-24 -72 13 -74 9 -74 -136 l0 -129 -40 0 -40 0 0 163 c0 90 3 167 7 170 11 11
181 8 188 -3z m-1556 -271 c15 -44 11 -422 -7 -554 -8 -60 -16 -207 -19 -325
-4 -199 -6 -217 -27 -255 -13 -22 -26 -53 -30 -68 -3 -15 -22 -60 -40 -100
-18 -40 -39 -97 -46 -127 -7 -30 -25 -98 -41 -150 -15 -52 -31 -117 -34 -145
-4 -27 -15 -70 -26 -94 -19 -44 -136 -214 -195 -284 -27 -33 -34 -50 -39 -105
-12 -126 -35 -274 -47 -295 -6 -12 -64 -85 -129 -163 -109 -129 -125 -154
-194 -297 -41 -85 -75 -158 -75 -161 0 -26 -48 -105 -76 -126 -31 -22 -96 -73
-215 -170 -27 -22 -55 -32 -105 -40 -38 -6 -96 -17 -129 -25 -33 -7 -94 -21
-135 -30 -41 -9 -112 -25 -157 -36 -103 -24 -174 -24 -287 1 l-89 20 -56 -25
c-31 -14 -64 -30 -73 -35 -27 -15 -39 -12 -102 26 l-59 35 -109 -25 c-131 -31
-225 -33 -328 -6 -76 20 -217 49 -345 71 -110 18 -143 36 -283 153 -26 22 -68
55 -94 74 -27 18 -48 38 -48 44 0 5 -7 25 -15 44 -8 19 -21 49 -29 67 -117
269 -138 302 -312 488 -61 66 -94 118 -94 148 0 15 -11 92 -24 172 -24 139
-44 198 -84 243 -37 42 -154 209 -163 233 -18 47 -77 288 -98 400 -5 28 -35
100 -65 160 -31 59 -61 133 -66 163 -6 30 -15 159 -19 287 -5 128 -12 236 -15
241 -15 25 -26 252 -20 410 6 154 9 172 24 172 12 0 25 -18 40 -57 13 -32 29
-71 36 -88 13 -30 20 -52 114 -340 63 -192 66 -198 144 -294 34 -42 83 -106
109 -143 59 -83 79 -98 137 -98 44 0 117 -14 126 -23 3 -2 9 -60 15 -128 12
-140 16 -147 94 -170 25 -8 54 -23 64 -34 15 -17 113 -302 129 -373 3 -14 11
-22 21 -20 14 3 16 30 16 243 1 239 1 240 29 315 16 41 32 80 37 85 4 6 24 42
43 81 44 91 100 156 209 243 73 60 95 72 135 77 26 4 72 21 102 38 118 68 196
98 316 121 142 27 170 23 298 -44 l112 -59 87 50 c68 40 98 51 145 55 57 5
187 -8 262 -27 19 -5 58 -14 85 -20 189 -44 306 -117 475 -298 74 -79 109
-131 141 -207 4 -11 14 -36 22 -55 62 -146 72 -218 57 -406 -7 -83 -11 -157
-8 -164 2 -8 24 47 47 121 82 256 85 261 117 278 17 9 50 24 75 34 l45 18 12
77 c7 43 12 103 12 134 l0 56 68 11 c37 6 80 12 97 14 21 1 36 12 53 37 33 50
61 86 110 144 23 27 42 55 42 60 0 6 16 29 36 51 39 44 52 71 79 160 10 33 21
65 25 70 3 6 42 119 86 252 61 187 83 243 96 243 9 0 21 -13 27 -31z m1391
-394 l0 -135 53 59 c49 56 54 59 100 60 l49 1 -30 -37 c-17 -21 -46 -53 -66
-72 l-35 -34 39 -45 c22 -25 54 -65 71 -91 l30 -46 -43 -3 c-39 -3 -45 0 -68
30 -14 18 -42 51 -62 73 l-37 40 -1 -72 0 -73 -40 0 -40 0 0 233 c0 129 3 237
7 240 3 4 21 7 40 7 l33 0 0 -135z m-20 -784 c0 -49 3 -103 6 -120 9 -42 43
-65 84 -56 l30 7 0 129 0 129 40 0 40 0 0 -165 0 -165 -25 -6 c-14 -3 -61 -5
-104 -3 -128 6 -151 42 -151 232 l0 107 40 0 40 0 0 -89z m100 -641 c0 -199 0
-200 23 -211 19 -8 22 -16 19 -45 -4 -29 -8 -34 -31 -34 -42 0 -75 23 -88 60
-17 50 -18 417 0 423 6 3 27 6 45 6 l32 1 0 -200z m51 -643 c110 -73 101 -254
-15 -314 -38 -20 -123 -13 -159 13 -93 67 -86 253 13 305 49 26 118 25 161 -4z
m-122 -787 l38 -115 38 118 38 117 38 0 c27 0 39 -4 39 -14 0 -20 -57 -179
-90 -253 -28 -60 -30 -63 -65 -63 -34 0 -37 2 -65 65 -32 71 -90 235 -90 254
0 8 14 11 41 9 l40 -3 38 -115z"/>
<path d="M6650 7264 c-96 -24 -216 -50 -267 -56 -96 -12 -141 -9 -378 29 -92
15 -110 15 -240 -1 -77 -9 -167 -21 -200 -27 -33 -5 -184 -14 -335 -20 -557
-23 -626 -27 -695 -43 -81 -19 -121 -28 -225 -50 -41 -9 -102 -23 -135 -31
-78 -18 -260 -59 -355 -80 -186 -40 -168 -32 -270 -129 -403 -385 -468 -452
-474 -492 -33 -209 -88 -551 -98 -600 -12 -68 -6 -99 18 -90 31 12 644 28 829
22 319 -10 668 -78 835 -161 113 -57 158 -65 380 -65 223 -1 261 5 379 64 90
45 190 74 381 111 324 62 497 66 1308 31 l102 -5 -6 42 c-31 217 -9 161 -250
622 -75 144 -84 181 -110 415 -12 112 -13 163 -3 301 11 155 7 260 -9 258 -4
0 -86 -20 -182 -45z"/>
<path d="M3377 5430 c-165 -35 -283 -111 -338 -217 -22 -42 -24 -58 -23 -172
1 -245 55 -431 171 -597 80 -115 167 -177 303 -215 92 -27 322 -26 457 1 246
49 373 119 492 274 137 177 209 451 170 638 -35 165 -137 242 -383 292 -122
25 -726 22 -849 -4z"/>
<path d="M5855 5430 c-217 -49 -304 -109 -351 -245 -27 -75 -25 -285 3 -380
44 -147 86 -233 169 -336 105 -132 215 -189 459 -240 119 -24 351 -26 444 -3
185 45 312 159 414 372 61 126 110 430 88 542 -7 33 -17 70 -24 82 -58 111
-169 177 -357 213 -57 12 -156 15 -420 14 -293 -1 -357 -4 -425 -19z"/>
<path d="M1044 7920 c-25 -10 -35 -32 -24 -49 4 -7 28 -16 54 -18 l46 -6 0 36
c0 45 -26 57 -76 37z"/>
<path d="M1053 5740 c-12 -5 -27 -18 -33 -29 -10 -20 -8 -21 60 -21 72 0 79 4
58 33 -16 20 -57 29 -85 17z"/>
<path d="M8783 5460 c-12 -5 -27 -18 -33 -29 -10 -20 -8 -21 60 -21 72 0 79 4
58 33 -16 20 -57 29 -85 17z"/>
<path d="M5032 3475 c-46 -33 -124 -40 -267 -27 -162 16 -186 15 -253 -9 -31
-11 -91 -32 -132 -47 -90 -31 -139 -63 -203 -131 -64 -68 -86 -120 -87 -201
-1 -36 -7 -83 -15 -105 -14 -38 -13 -42 20 -110 18 -38 61 -131 95 -205 34
-74 65 -139 70 -144 7 -7 135 30 201 58 11 5 35 -7 73 -38 31 -25 59 -46 63
-46 5 0 24 15 43 33 77 71 220 188 314 256 75 54 104 70 120 65 19 -6 84 -49
96 -64 3 -4 57 -45 120 -92 63 -47 137 -109 165 -137 27 -28 54 -51 60 -51 7
0 22 12 36 26 13 14 36 35 52 46 l27 20 106 -36 c58 -20 108 -36 111 -36 6 0
123 248 164 349 19 47 41 86 50 88 14 4 14 13 1 86 -25 142 -34 168 -79 215
-30 30 -43 52 -43 72 0 28 -51 102 -100 145 -28 25 -110 26 -295 1 -71 -10
-182 -20 -246 -23 -123 -6 -153 1 -193 46 -24 26 -32 25 -74 -4z"/>
<path d="M8763 2046 c-25 -21 -28 -31 -28 -81 0 -50 3 -60 28 -81 33 -28 57
-30 86 -6 44 35 44 139 1 174 -30 24 -54 23 -87 -6z"/>
</g>
</svg>
